<svg xmlns="http://www.w3.org/2000/svg" width="1024" height="1024" viewBox="0 0 1024 1024" fill="none">
<defs>
  <linearGradient id="bgGrad" x1="140" y1="110" x2="900" y2="900" gradientUnits="userSpaceOnUse">
    <stop offset="0%" stop-color="#2A0E6E"/>
    <stop offset="58%" stop-color="#0F4CCF"/>
    <stop offset="100%" stop-color="#10CBEA"/>
  </linearGradient>
  <linearGradient id="markGrad" x1="160" y1="360" x2="875" y2="620" gradientUnits="userSpaceOnUse">
    <stop offset="0%" stop-color="#FF4FA3"/>
    <stop offset="38%" stop-color="#FF5E7A"/>
    <stop offset="100%" stop-color="#7FE7FF"/>
  </linearGradient>
  <filter id="shadow" x="90" y="150" width="860" height="700" filterUnits="userSpaceOnUse">
    <feDropShadow dx="0" dy="8" stdDeviation="6" flood-color="#06102A" flood-opacity="0.25"/>
  </filter>
</defs>
<rect x="70" y="70" width="884" height="884" rx="190" fill="url(#bgGrad)"/>
<g filter="url(#shadow)">
  <path d="M 150 520 C 205 520, 225 500, 255 430 C 275 385, 300 365, 320 450 C 338 530, 360 620, 400 620 C 445 620, 465 540, 485 360 C 495 275, 515 210, 545 210 C 580 210, 595 310, 595 455 C 595 620, 612 730, 655 730 C 700 730, 712 650, 725 585 C 735 540, 752 520, 785 520" stroke="url(#markGrad)" stroke-width="56" stroke-linecap="round" stroke-linejoin="round"/>
  <line x1="735" y1="365" x2="900" y2="365" stroke="url(#markGrad)" stroke-width="56" stroke-linecap="round"/>
<line x1="735" y1="470" x2="900" y2="470" stroke="url(#markGrad)" stroke-width="56" stroke-linecap="round"/>
<line x1="735" y1="575" x2="860" y2="575" stroke="url(#markGrad)" stroke-width="56" stroke-linecap="round"/>
</g>
</svg>